<svg width="24" height="24" viewBox="0 0 24 24" fill="none" xmlns="http://www.w3.org/2000/svg">
<path d="M15.7774 3H8.23161C4.95397 3 3 4.953 3 8.229V15.762C3 19.047 4.95397 21 8.23161 21H15.7684C19.046 21 21 19.047 21 15.771V8.229C21.009 4.953 19.055 3 15.7774 3ZM16.7408 10.164L14.6608 12.846C14.3997 13.179 14.0305 13.395 13.6073 13.44C13.1841 13.494 12.7699 13.377 12.4367 13.116L10.7889 11.82C10.7258 11.766 10.6538 11.766 10.6178 11.775C10.5818 11.775 10.5187 11.793 10.4647 11.865L8.32165 14.646C8.18658 14.817 7.98849 14.907 7.79039 14.907C7.64632 14.907 7.50224 14.862 7.37618 14.763C7.07903 14.538 7.02501 14.115 7.25012 13.818L9.39319 11.037C9.65432 10.704 10.0235 10.488 10.4467 10.434C10.8609 10.38 11.2841 10.497 11.6173 10.758L13.2651 12.054C13.3281 12.108 13.3912 12.108 13.4362 12.099C13.4722 12.099 13.5352 12.081 13.5893 12.009L15.6693 9.327C15.8944 9.03 16.3266 8.976 16.6148 9.21C16.9119 9.453 16.966 9.876 16.7408 10.164Z" fill="#005DB3"/>
</svg>
