<svg width="110" height="110" viewBox="0 0 110 110" fill="none" xmlns="http://www.w3.org/2000/svg">
<path d="M43.4911 32.083H28.4176C23.2837 32.083 20.7149 32.083 18.7541 33.0821C17.0292 33.961 15.6279 35.3623 14.7491 37.0871C13.75 39.0479 13.75 41.6168 13.75 46.7506V72.4172C13.75 77.5511 13.75 80.1144 14.7491 82.0752C15.6279 83.8001 17.0292 85.206 18.7541 86.0849C20.713 87.083 23.2787 87.083 28.4025 87.083H81.5975C86.7213 87.083 89.2833 87.083 91.2422 86.0849C92.9671 85.206 94.373 83.8001 95.2519 82.0752C96.25 80.1163 96.25 77.5543 96.25 72.4305V46.7355C96.25 41.6117 96.25 39.046 95.2519 37.0871C94.373 35.3623 92.9671 33.961 91.2422 33.0821C89.2814 32.083 86.718 32.083 81.5842 32.083H66.5079M43.4911 32.083H43.7744M43.4911 32.083C43.5486 32.083 43.609 32.083 43.6726 32.083L43.7744 32.083M43.4911 32.083C43.0048 32.0828 42.7322 32.0803 42.5167 32.0562C39.8236 31.7546 37.9765 29.1913 38.5421 26.541C38.5947 26.2944 38.6987 25.9823 38.9047 25.3644L38.9136 25.3382C39.1488 24.6325 39.2665 24.2796 39.3964 23.9682C40.7269 20.78 43.7398 18.6118 47.1851 18.3578C47.5216 18.333 47.8913 18.333 48.6353 18.333H61.3643C62.1083 18.333 62.4811 18.333 62.8176 18.3578C66.2629 18.6118 69.2726 20.78 70.603 23.9682C70.733 24.2796 70.8512 24.6321 71.0864 25.3378C71.2983 25.9734 71.4043 26.2913 71.4576 26.5414C72.0232 29.1917 70.1791 31.7546 67.486 32.0562C67.2704 32.0803 66.9952 32.0828 66.5079 32.083M43.7744 32.083H66.2245M66.2245 32.083H66.5079M66.2245 32.083L66.3263 32.083C66.3899 32.083 66.4504 32.083 66.5079 32.083M55 73.333C47.4061 73.333 41.25 67.1769 41.25 59.583C41.25 51.9891 47.4061 45.833 55 45.833C62.5939 45.833 68.75 51.9891 68.75 59.583C68.75 67.1769 62.5939 73.333 55 73.333Z" stroke="black" stroke-width="7" stroke-linecap="round" stroke-linejoin="round"/>
</svg>
