<svg width="17" height="17" viewBox="0 0 17 17" fill="none" xmlns="http://www.w3.org/2000/svg">
<path d="M14.875 7.08333C14.875 11.6875 8.5 15.5833 8.5 15.5833C8.5 15.5833 2.125 11.6875 2.125 7.08333C2.125 5.39348 2.79665 3.77269 3.9953 2.57405C5.19395 1.3754 6.81473 0.70375 8.5 0.70375C10.1853 0.70375 11.8061 1.3754 13.0047 2.57405C14.2033 3.77269 14.875 5.39348 14.875 7.08333Z" stroke="#77777A" stroke-width="1.41667" stroke-linecap="round" stroke-linejoin="round"/>
<path d="M8.5 9.20833C9.67312 9.20833 10.625 8.25645 10.625 7.08333C10.625 5.91021 9.67312 4.95833 8.5 4.95833C7.32688 4.95833 6.375 5.91021 6.375 7.08333C6.375 8.25645 7.32688 9.20833 8.5 9.20833Z" stroke="#77777A" stroke-width="1.41667" stroke-linecap="round" stroke-linejoin="round"/>
</svg>
