<svg width="12" height="12" viewBox="0 0 12 12" fill="none" xmlns="http://www.w3.org/2000/svg">
<mask id="mask0_197_2508" style="mask-type:alpha" maskUnits="userSpaceOnUse" x="0" y="0" width="12" height="12">
<rect width="12" height="12" fill="#D9D9D9"/>
</mask>
<g mask="url(#mask0_197_2508)">
<path d="M6 10C5.725 10 5.48958 9.90208 5.29375 9.70625C5.09792 9.51042 5 9.275 5 9C5 8.725 5.09792 8.48958 5.29375 8.29375C5.48958 8.09792 5.725 8 6 8C6.275 8 6.51042 8.09792 6.70625 8.29375C6.90208 8.48958 7 8.725 7 9C7 9.275 6.90208 9.51042 6.70625 9.70625C6.51042 9.90208 6.275 10 6 10ZM6 7C5.725 7 5.48958 6.90208 5.29375 6.70625C5.09792 6.51042 5 6.275 5 6C5 5.725 5.09792 5.48958 5.29375 5.29375C5.48958 5.09792 5.725 5 6 5C6.275 5 6.51042 5.09792 6.70625 5.29375C6.90208 5.48958 7 5.725 7 6C7 6.275 6.90208 6.51042 6.70625 6.70625C6.51042 6.90208 6.275 7 6 7ZM6 4C5.725 4 5.48958 3.90208 5.29375 3.70625C5.09792 3.51042 5 3.275 5 3C5 2.725 5.09792 2.48958 5.29375 2.29375C5.48958 2.09792 5.725 2 6 2C6.275 2 6.51042 2.09792 6.70625 2.29375C6.90208 2.48958 7 2.725 7 3C7 3.275 6.90208 3.51042 6.70625 3.70625C6.51042 3.90208 6.275 4 6 4Z" fill="white"/>
</g>
</svg>
