<svg width="17" height="17" viewBox="0 0 17 17" fill="none" xmlns="http://www.w3.org/2000/svg">
<path d="M15.5834 12.0417V14.1667C15.5841 14.3629 15.5434 14.5571 15.4638 14.7367C15.3843 14.9162 15.2677 15.0772 15.1216 15.2092C14.9754 15.3412 14.803 15.4413 14.6153 15.503C14.4276 15.5647 14.2289 15.5867 14.0321 15.5677C11.8583 15.3301 9.77518 14.5549 7.94926 13.3031C6.25225 12.1556 4.82271 10.6261 3.77509 8.82916C2.51701 6.99457 1.74183 4.90093 1.50884 2.71791C1.48993 2.52189 1.51179 2.32397 1.57308 2.13684C1.63436 1.9497 1.73383 1.77771 1.86516 1.63166C1.99649 1.48562 2.15683 1.36887 2.33573 1.28887C2.51463 1.20887 2.70814 1.16747 2.90384 1.16749H5.02884C5.36623 1.16422 5.69252 1.28324 5.94764 1.50323C6.20276 1.72322 6.37005 2.02958 6.41926 2.36499C6.51187 3.03498 6.68194 3.69295 6.92634 4.32707C7.02264 4.58078 7.04215 4.85711 6.98268 5.1218C6.9232 5.38649 6.78724 5.62857 6.59134 5.81999L5.68384 6.72749C6.71876 8.49453 8.24712 10.0229 10.0142 11.0578L10.9217 10.1503C11.1131 9.9544 11.3552 9.81843 11.6199 9.75896C11.8846 9.69949 12.1609 9.71899 12.4146 9.81529C13.0487 10.0597 13.7067 10.2298 14.3767 10.3224C14.716 10.3721 15.0257 10.5423 15.2469 10.8018C15.4682 11.0613 15.5857 11.3923 15.5834 11.7337V12.0417Z" stroke="#77777A" stroke-width="1.41667" stroke-linecap="round" stroke-linejoin="round"/>
</svg>
