<svg width="24" height="24" viewBox="0 0 24 24" fill="none" xmlns="http://www.w3.org/2000/svg">
<path d="M14.2223 5H5.33335C4.29792 5 3.77992 5 3.37154 5.21567C2.82703 5.50324 2.3947 6.05514 2.16916 6.74939C2 7.27007 2 7.93016 2 9.25033C3.84096 9.25033 5.33335 11.1525 5.33335 13.4997C5.33335 15.8469 3.84096 17.75 2 17.75C2 19.0702 2 19.7303 2.16916 20.2509C2.3947 20.9452 2.82703 21.4966 3.37154 21.7842C3.77992 21.9999 4.29792 22 5.33335 22H14.2223M14.2223 5H18.6668C19.7022 5 20.2199 5 20.6283 5.21567C21.1728 5.50324 21.6053 6.05514 21.8308 6.74939C22 7.27007 22 7.93016 22 9.25033C20.159 9.25033 18.6668 11.1528 18.6668 13.5C18.6668 15.8472 20.159 17.75 22 17.75C22 19.0702 22 19.7303 21.8308 20.2509C21.6053 20.9452 21.1728 21.4966 20.6283 21.7842C20.2199 21.9999 19.7022 22 18.6668 22H14.2223M14.2223 5V22" stroke="#77777A" stroke-width="1.5" stroke-linecap="round" stroke-linejoin="round"/>
<mask id="mask0_93_3725" style="mask-type:alpha" maskUnits="userSpaceOnUse" x="4" y="7" width="12" height="13">
<rect x="4" y="7.5" width="12" height="12" fill="#D9D9D9"/>
</mask>
<g mask="url(#mask0_93_3725)">
<path d="M10 17.5C9.725 17.5 9.48958 17.4021 9.29375 17.2063C9.09792 17.0104 9 16.775 9 16.5C9 16.225 9.09792 15.9896 9.29375 15.7938C9.48958 15.5979 9.725 15.5 10 15.5C10.275 15.5 10.5104 15.5979 10.7063 15.7938C10.9021 15.9896 11 16.225 11 16.5C11 16.775 10.9021 17.0104 10.7063 17.2063C10.5104 17.4021 10.275 17.5 10 17.5ZM10 14.5C9.725 14.5 9.48958 14.4021 9.29375 14.2063C9.09792 14.0104 9 13.775 9 13.5C9 13.225 9.09792 12.9896 9.29375 12.7938C9.48958 12.5979 9.725 12.5 10 12.5C10.275 12.5 10.5104 12.5979 10.7063 12.7938C10.9021 12.9896 11 13.225 11 13.5C11 13.775 10.9021 14.0104 10.7063 14.2063C10.5104 14.4021 10.275 14.5 10 14.5ZM10 11.5C9.725 11.5 9.48958 11.4021 9.29375 11.2063C9.09792 11.0104 9 10.775 9 10.5C9 10.225 9.09792 9.98958 9.29375 9.79375C9.48958 9.59792 9.725 9.5 10 9.5C10.275 9.5 10.5104 9.59792 10.7063 9.79375C10.9021 9.98958 11 10.225 11 10.5C11 10.775 10.9021 11.0104 10.7063 11.2063C10.5104 11.4021 10.275 11.5 10 11.5Z" fill="#77777A"/>
</g>
</svg>
