<svg width="22" height="19" viewBox="0 0 22 19" fill="none" xmlns="http://www.w3.org/2000/svg">
<path d="M4.08341 0.75H12.9724H17.4168C18.4523 0.75 18.97 0.75 19.3784 0.965675C19.9229 1.25324 20.3554 1.80514 20.5809 2.49939C20.7501 3.02007 20.7501 3.68016 20.7501 5.00033C18.9091 5.00033 17.4168 6.90279 17.4168 9.25C17.4168 11.5972 18.9091 13.5 20.7501 13.5C20.7501 14.8202 20.7501 15.4803 20.5809 16.0009C20.3554 16.6952 19.9229 17.2466 19.3784 17.5342C18.97 17.7499 18.4523 17.75 17.4168 17.75H12.9724H4.08341C3.04798 17.75 2.52998 17.7499 2.1216 17.5342C1.57709 17.2466 1.14476 16.6952 0.919219 16.0009C0.750061 15.4803 0.750061 14.8202 0.750061 13.5C2.59102 13.5 4.08341 11.5969 4.08341 9.24967C4.08341 6.90246 2.59102 5.00033 0.750061 5.00033C0.750061 3.68016 0.750061 3.02007 0.919219 2.49939C1.14476 1.80514 1.57709 1.25324 2.1216 0.965675C2.52998 0.75 3.04798 0.75 4.08341 0.75Z" fill="#005DB3"/>
<path d="M12.9724 0.75H4.08341C3.04798 0.75 2.52998 0.75 2.1216 0.965675C1.57709 1.25324 1.14476 1.80514 0.919219 2.49939C0.750061 3.02007 0.750061 3.68016 0.750061 5.00033C2.59102 5.00033 4.08341 6.90246 4.08341 9.24967C4.08341 11.5969 2.59102 13.5 0.750061 13.5C0.750061 14.8202 0.750061 15.4803 0.919219 16.0009C1.14476 16.6952 1.57709 17.2466 2.1216 17.5342C2.52998 17.7499 3.04798 17.75 4.08341 17.75H12.9724M12.9724 0.75H17.4168C18.4523 0.75 18.97 0.75 19.3784 0.965675C19.9229 1.25324 20.3554 1.80514 20.5809 2.49939C20.7501 3.02007 20.7501 3.68016 20.7501 5.00033C18.9091 5.00033 17.4168 6.90279 17.4168 9.25C17.4168 11.5972 18.9091 13.5 20.7501 13.5C20.7501 14.8202 20.7501 15.4803 20.5809 16.0009C20.3554 16.6952 19.9229 17.2466 19.3784 17.5342C18.97 17.7499 18.4523 17.75 17.4168 17.75H12.9724M12.9724 0.75V17.75" stroke="white" stroke-width="1.5" stroke-linecap="round" stroke-linejoin="round"/>
</svg>
